<svg class="icon" viewBox="0 0 1024 1024" xmlns="http://www.w3.org/2000/svg" width="30" height="30"><path d="M9.268 495.15a502.738 502.738 0 1 0 1005.477 0 502.738 502.738 0 1 0-1005.477 0z" fill="#F0F8FF"/><path d="M509.728 511.731c34.891 19.12 88.316-125.554-3.142-117.376-91.458 8.177 3.142 117.376 3.142 117.376z" fill="#FFE1CC"/><path d="M487.449 850.777a24.558 24.558 0 1 0 49.116 0 24.558 24.558 0 1 0-49.116 0z" fill="#5A7C88"/><path d="M308.742 511.636c-34.367 20.048-91.645-123.147 0-117.419 91.643 5.727 0 117.419 0 117.419zm401.206 0c34.367 20.048 91.645-123.147 0-117.419-91.643 5.727 0 117.419 0 117.419z" fill="#FFE1CC"/><path d="M731.359 436.973c0 120.758-97.893 251.461-218.652 251.461S294.055 557.731 294.055 436.973 391.95 218.32 512.708 218.32s218.651 97.895 218.651 218.653zm-17.714 390.549c0 53.208-89.963 96.341-200.938 96.341s-200.939-43.133-200.939-96.341 89.963-69.764 200.939-69.764 200.938 16.556 200.938 69.764z" fill="#FFE1CC"/><path d="M794.88 910.807c-32.191 21.975-67.073 40.314-104.099 54.316a428.492 428.492 0 0 1-29.5 10.215 495.892 495.892 0 0 1-98.119 19.983 496.067 496.067 0 0 1-47.39 2.542c-.697.05-1.394.05-2.093.05h-3.089c-.647 0-1.296 0-1.943-.05a485.754 485.754 0 0 1-46.891-2.442c-32.141-3.189-63.336-9.368-93.385-18.387a442.808 442.808 0 0 1-26.808-8.77 322.492 322.492 0 0 1-15.05-5.731c-1.544-.599-3.14-1.196-4.683-1.894-11.312-4.585-22.475-9.617-33.338-15.099a76.557 76.557 0 0 1-4.535-2.243c-18.636-9.467-36.626-20.131-53.818-31.793 16.047-37.422 37.474-67.82 63.088-91.939 10.265-9.718 21.279-18.387 32.838-26.062.05-.05.05 0 .05 0 4.186-2.79 8.421-5.482 12.757-8.022a236.665 236.665 0 0 1 9.867-5.482 240.965 240.965 0 0 1 13.953-6.877 85.983 85.983 0 0 1 3.139-1.395 242.217 242.217 0 0 1 16.993-6.876 133.295 133.295 0 0 1 5.78-2.093c.05 0 .05 0 .1-.05h.05a235.272 235.272 0 0 1 7.724-2.542c2.542-.846 5.082-1.595 7.624-2.341-.05.398 0 .896.15 1.445.198 1.097.648 2.442 1.295 4.037.25.498.45.996.699 1.545 1.196 2.64 2.89 5.78 5.033 9.318 3.738 6.328 8.92 13.904 15.099 21.876.05.05.1.15.15.2 1.694 2.142 3.488 4.334 5.281 6.577l.05.1c.1.05.15.15.2.2a322.907 322.907 0 0 0 6.826 7.923s.05 0 .05.05a351.88 351.88 0 0 0 8.472 8.92c1.296 1.246 2.592 2.542 3.887 3.787a146.682 146.682 0 0 0 4.186 3.887 79.73 79.73 0 0 0 3.787 3.388 262.372 262.372 0 0 0 5.98 4.934c1.595 1.246 3.19 2.441 4.784 3.637 5.73 4.186 11.61 7.725 17.49 10.514 7.575 3.688 15.25 5.93 22.723 6.329.798.1 1.646.1 2.442.1.798 0 1.645 0 2.442-.1 7.027-.35 14.252-2.442 21.428-5.681 6.328-2.89 12.657-6.727 18.835-11.163a136.816 136.816 0 0 0 6.23-4.734c2.84-2.342 5.63-4.734 8.372-7.275a93.261 93.261 0 0 0 4.036-3.788c1.894-1.794 3.788-3.637 5.581-5.53a189.15 189.15 0 0 0 7.574-8.073 168.376 168.376 0 0 0 4.036-4.634l.05-.05a352.036 352.036 0 0 0 4.037-4.834 264.29 264.29 0 0 0 13.904-18.787c4.534-6.776 7.923-12.706 9.965-17.091.25-.549.449-1.047.698-1.545 1.047-2.492 1.545-4.335 1.445-5.482 5.432 1.595 10.813 3.29 16.095 5.132 1.545.549 3.14 1.097 4.634 1.695 4.983 1.794 9.917 3.737 14.75 5.88a231.812 231.812 0 0 1 19.435 9.268c.05 0 .05.05.1.05 3.488 1.744 6.826 3.637 10.216 5.63 46.041 26.96 83.615 67.821 108.331 125.327z" fill="#FFFDF8"/><path d="M441.673 585.008v204.31H581.2v-204.31H441.673z" fill="#FFE1CC"/><path d="M621.616 781.842l-.25.798c.05.05 0 .05 0 .05l-10.564 38.62-3.587 13.156-.848 3.139-1.346 4.883v.05l-8.371 30.597-.05.05-12.109 44.35-21.327 77.787a496.067 496.067 0 0 1-47.39 2.542c-.697.05-1.395.05-2.094.05h-3.089c-.647 0-1.295 0-1.943-.05a485.754 485.754 0 0 1-46.891-2.442c-6.23-24.516-13.055-51.376-19.734-77.687-4.087-15.797-8.072-31.444-11.86-46.194-1.644-6.278-3.19-12.358-4.734-18.288-.1-.349-.2-.648-.25-.997v-.05c-1.195-4.485-2.292-8.82-3.388-13.056-.447-1.644-.846-3.24-1.246-4.833l-.05-.05c-2.092-8.123-4.085-15.597-5.88-22.425a2155.284 2155.284 0 0 0-7.475-27.806v-.05a485.144 485.144 0 0 1-1.196-4.186v-.05c-1.145-3.887-1.843-6.08-2.042-6.23l7.375.648 30.397 2.79 63.387 5.732h3.34l5.033-.05h.946l66.824-.499 28.007-.199 10.315-.099h2.09z" fill="#79C4FF"/><path d="M508.647 997.862a485.754 485.754 0 0 1-46.891-2.442c-32.141-3.189-63.336-9.368-93.385-18.387a442.808 442.808 0 0 1-26.808-8.77 349.696 349.696 0 0 0-12.407-10.565c-1.296-1.046-2.641-2.142-3.987-3.189-.599-.498-1.196-.997-1.844-1.445-.498-.448-1.047-.846-1.594-1.246a384.066 384.066 0 0 0-24.917-17.889c-1.294-.798-2.54-1.644-3.836-2.442-1.445-.946-2.94-1.843-4.386-2.74-.548-.35-1.047-.648-1.594-.997.847-.648 1.694-1.296 2.541-1.894.349-.249.698-.548.997-.797 2.442-1.794 4.833-3.638 7.176-5.432 2.592-2.043 5.183-3.987 7.674-6.029l.05-.05c14.351-11.312 27.358-22.324 39.267-33.138a455.864 455.864 0 0 0 11.113-10.415c4.585-4.335 8.92-8.621 13.156-12.907v-.05a675.509 675.509 0 0 0 10.364-11.013c1.246-1.346 2.741-2.79 5.532-2.591 1.694.1 3.638.846 5.482 1.595 13.902 5.68 26.71 14.999 37.922 24.816.647.548 1.296 1.147 1.893 1.694a258.458 258.458 0 0 1 43.702 50.529 271.128 271.128 0 0 1 34.78 75.794z" fill="#E5EAF9"/><path d="M478.6 922.467c13.852 28.055 26.559 53.918 31.99 75.445-.647 0-1.296 0-1.943-.05a485.754 485.754 0 0 1-46.891-2.442c-32.141-3.189-63.336-9.368-93.385-18.387-9.617-9.717-19.483-18.836-29.599-27.208a55.899 55.899 0 0 0-3.787-3.19c-1.296-1.096-2.641-2.142-3.937-3.189-1.445-1.195-2.89-2.292-4.335-3.388-8.223-6.428-16.543-12.408-24.965-17.84a61.177 61.177 0 0 0-4.037-2.592 260.399 260.399 0 0 0-6.927-4.335c7.076-5.183 13.853-10.265 20.381-15.398h.05c10.166-7.923 19.684-15.696 28.554-23.32a646.284 646.284 0 0 0 15.399-13.704c3.936-3.687 7.723-7.275 11.311-10.813 4.984-4.884 9.717-9.717 14.152-14.501.798-.847 3.09-3.987 5.382-6.03 1.196-1.047 2.391-1.795 3.338-1.745 1.645.15 5.033-.697 6.878 0 2.092.848 4.086.448 6.079-.847.05 0 .1-.05.15-.1 1.445-.947 2.84-2.442 4.236-4.186 2.741-3.489 5.382-8.222 7.924-12.807 2.64-4.735 5.182-9.369 7.724-12.409.647-.797 1.246-1.445 1.893-1.993a7.479 7.479 0 0 1 2.144-1.395c1.544-.648 3.089-.448 4.634.896.3 2.044.647 4.037 1.047 6.08v.099c.299 1.394.548 2.84.896 4.286v.05c1.895 9.218 4.485 18.437 7.524 27.706.45 1.344.898 2.69 1.395 4.085v.05c.15.449.3.897.499 1.346.398 1.246.896 2.542 1.346 3.788v.05c9.614 26.712 22.72 53.172 34.88 77.988z" fill="#F3F7FF"/><path d="M457.915 819.256c-25.666 16.606-1.945 8.985-23.33 30.604-15.785-28.37-101.329-12.63-126.275-30.798 102.051-109.182 71.22-24.83 149.605.194z" fill="#E5EAF9"/><path d="M455.868 814.087c-25.666 16.606-1.945 8.984-23.33 30.604-15.785-28.37-101.329-12.63-126.274-30.798 102.051-109.183 71.221-24.83 149.604.194z" fill="#F3F7FF"/><path d="M735.88 932.732c-15.298 9.318-30.397 20.132-45.099 32.39a428.492 428.492 0 0 1-29.5 10.215 495.892 495.892 0 0 1-98.119 19.983 496.067 496.067 0 0 1-47.39 2.542c7.924-26.411 20.232-52.273 36.677-75.893 11.91-17.092 25.962-32.99 42.157-47.14.647-.6 1.296-1.096 1.993-1.645l.05-.05c10.714-9.22 22.873-17.79 35.88-23.122 1.844-.747 3.787-1.495 5.481-1.595 2.84-.2 4.285 1.246 5.53 2.592 9.668 10.564 20.532 21.428 32.69 32.54 14.451 13.304 30.696 26.958 48.935 41.06 3.488 2.692 7.076 5.383 10.714 8.123z" fill="#E5EAF9"/><path d="M732.142 920.274a264.4 264.4 0 0 0-6.976 4.335c-21.976 13.953-43.503 30.996-63.884 50.73a495.892 495.892 0 0 1-98.118 19.982 496.067 496.067 0 0 1-47.39 2.542c-.697.05-1.395.05-2.094.05 6.329-21.826 19.335-47.639 32.99-75.445 11.012-22.324 22.474-45.944 31.294-69.814.896-2.341 1.744-4.684 2.592-7.026v-.05c.647-1.843 1.246-3.687 1.843-5.482 3.04-9.268 5.632-18.487 7.524-27.656v-.05c.35-1.445.598-2.89.898-4.335.15-.847.299-1.644.398-2.441l.05-.05c.2-1.196.4-2.442.598-3.638 1.146-.996 2.293-1.345 3.439-1.196 1.095.1 2.242.698 3.338 1.745.649.498 1.246 1.145 1.894 1.943 3.339 4.037 6.728 10.763 10.265 16.893.947 1.644 1.894 3.239 2.94 4.734 2.143 3.388 4.387 6.18 6.728 7.773 1.992 1.395 4.036 1.893 6.23.997 1.793-.748 5.182.099 6.826 0 .947-.1 2.143.647 3.34 1.694 2.292 1.993 4.584 5.183 5.43 6.03 11.262 12.11 24.219 24.567 38.97 37.424 15.046 13.054 31.939 26.459 50.875 40.311z" fill="#F3F7FF"/><path d="M564.98 824.24c25.665 16.605 1.944 8.983 23.33 30.603 15.784-28.37 101.328-12.63 126.274-30.797-102.052-109.182-71.222-24.83-149.605.193z" fill="#E5EAF9"/><path d="M567.025 819.07c25.666 16.606 1.944 8.985 23.33 30.604 15.785-28.37 101.329-12.63 126.274-30.797-102.05-109.184-71.22-24.831-149.604.193z" fill="#F3F7FF"/><path d="M450.048 743.878l-79.524 26.733 58.147 86.81 86.365-74.37z" fill="#8FA5B0"/><path d="M442.542 734.503l-81.984 28.94 59.946 93.977 92.272-78.462z" fill="#64C4F4"/><path d="M582.872 734.503l79.399 28.94-76.11 98.13-76.109-82.615z" fill="#64C4F4"/><path d="M503.086 795.962a9.607 9.607 0 1 0 19.214 0 9.607 9.607 0 1 0-19.214 0zm0 69.764a9.607 9.607 0 1 0 19.214 0 9.607 9.607 0 1 0-19.214 0zm0 79.73a9.607 9.607 0 1 0 19.214 0 9.607 9.607 0 1 0-19.214 0z" fill="#FFFDF8"/><path d="M549.673 204.627c9.266-34.263 43.535-54.191 77.395-51.598 33.86 2.593 66.243 24.327 90.313 52.432 7.47 8.722 14.335 18.162 19.398 28.61 16.71 34.482 14.351 153.186-.03 185.945L549.674 204.627z" fill="#332115"/><path d="M551.452 138.423c19.406 15.394 37.388 42.893 27.76 67.657-22.947 33.46-66.269 31.7-102.286 41.6-28.142 7.734-54.039 24.116-82.141 32.044-32.999 9.31-69.278 6.122-98.877-13.082s-51.406-55.392-52.841-94.472c13.7 7.48 28.007 15.122 43.168 14.913 20.652-.285 38.725-14.869 56.653-26.675 18.657-12.285 38.481-22.02 58.253-31.725 15.229-7.476 30.604-15.003 46.867-18.568 35.746-7.834 73.482 4.54 103.444 28.308z" fill="#332115"/><path d="M743.646 378.715c-.39-11.535-1.513-22.093-1.578-27.301-.476-38.386-12.462-71.952-35.349-102.8-39.751-53.58-99.773-86.258-166.977-86.258h-53.27c-60.017 0-117.179 27.627-157.397 71.648-24.46 26.774-41.049 60.01-48.455 95.466-3.798 18.183-5.192 36.844-4.374 55.395.645 14.622-2.299 42.582 16.167 32.06 11.453-6.526 22.855-30.194 32.62-40.26 12.455-12.837 26.173-24.489 41.179-34.249 29.978-19.499 64.505-30.767 100.253-32.392 57.468-2.611 111.99 18.495 161.335 46.158 28.14 15.776 54.103 24.42 73.886 50.754 4.95 6.588 9.945 13.919 17.699 16.705 22.626 8.13 25.082-20.572 24.26-44.926z" fill="#332115"/><path d="M278.581 368.218c2.152-5.731 6.445-10.404 11.093-14.388 15.906-13.634 37.281-20.694 58.179-19.216-20.833 21.616-41.053 47.173-42.382 77.165-.872 19.655 6.45 40.36-1.27 58.455-14.44-25.215-23.636-53.418-26.835-82.3-.732-6.608-1.122-13.492 1.215-19.716zm461.161 0c-2.151-5.731-6.444-10.404-11.092-14.388-15.906-13.634-37.282-20.694-58.18-19.216 20.834 21.616 41.054 47.173 42.383 77.165.872 19.655-6.45 40.36 1.27 58.455 14.44-25.215 23.636-53.418 26.834-82.3.733-6.608 1.122-13.492-1.215-19.716z" fill="#332115"/><path d="M580.259 674.157v19.982c-39.9 21.776-90.008 18.238-140.114.647V673.06c5.567.15 1.976.3 2.274.398 22.026 9.618 45.225 15 69.741 15 23.92.001 47.685-5.132 68.099-14.3z" fill="#F4C7A8"/></svg>
