<svg v-if="!isFullScreen" viewBox="0 0 1024 1024" version="1.1"
     xmlns="http://www.w3.org/2000/svg"
     width="25" height="25" fill="#fff">
  <path
    d="M832 221.866667v-8.533334c0-12.8-8.533333-21.333333-21.333333-21.333333h-192c-12.8 0-21.333333 8.533333-21.333334 21.333333s8.533333 21.333333 21.333334 21.333334h140.8l-170.666667 170.666666c-8.533333 8.533333-8.533333 21.333333 0 29.866667 8.533333 8.533333 21.333333 8.533333 29.866667 0l166.4-166.4v140.8c0 12.8 8.533333 21.333333 21.333333 21.333333s21.333333-8.533333 21.333333-21.333333l4.266667-187.733333zM435.2 593.066667c-8.533333-8.533333-21.333333-8.533333-29.866667 0l-170.666666 170.666666v-140.8c0-12.8-8.533333-21.333333-21.333334-21.333333s-21.333333 8.533333-21.333333 21.333333v192c0 12.8 8.533333 21.333333 21.333333 21.333334h192c12.8 0 21.333333-8.533333 21.333334-21.333334s-8.533333-21.333333-21.333334-21.333333h-140.8l166.4-166.4c12.8-12.8 12.8-29.866667 4.266667-34.133333z"/>
</svg>
