<svg class="icon" viewBox="0 0 1024 1024" xmlns="http://www.w3.org/2000/svg" width="30" height="30"><path d="M512 64C265 64 64 265.1 64 512.2 64 759.1 265 960 512 960s448-200.9 448-447.8C960 265.1 759 64 512 64zm-68.9 66.2c-38.2 35-86.2 89.7-121.1 165.9-42.1-20.5-70.4-43.4-85.4-57.3 56.2-56.5 128.8-94.5 206.5-108.6zM208.7 269.9c17.1 16.1 49.6 42.6 97.4 65.5-17.6 49.1-27.4 101.5-29.4 155.9H124.4c4.3-81.3 33.3-157.7 84.3-221.4zm-84.3 262.9h152.3c2 54.3 11.9 106.8 29.4 155.9-47.8 22.9-80.4 49.5-97.4 65.3-51-63.5-80-139.9-84.3-221.2zm112.2 252.5c14.9-13.9 43.1-36.7 85.4-57.3 34.9 76.3 82.8 130.9 121.1 165.8-77.7-14.1-150.3-52-206.5-108.5zm254.6 94.4c-34.8-28.6-90.8-84.2-130-168.3 40.7-14.8 84.4-23.5 130-25.5v193.8zm0-235.5c-51.5 2-100.5 11.5-146 28.2-15.9-44.2-24.9-91.1-26.9-139.6h172.9v111.4zm0-152.9H318.3c2-48.6 11-95.5 26.9-139.5 45.5 16.6 94.6 26 146 27.9v111.6zm0-153.2c-45.8-2.1-89.4-10.6-130-25.4 39.1-83.9 95.2-139.7 130-168.4v193.8zm408.4 153.2H747.4c-2.1-54.6-11.9-106.9-29.5-155.9 47.8-22.9 80.3-49.4 97.5-65.5 50.8 63.7 79.8 140 84.2 221.4zM787.4 238.7c-14.9 13.9-43.3 36.8-85.5 57.3-34.9-76.2-82.8-130.9-121-165.9 77.8 14.2 150.4 52.2 206.5 108.6zm-254.6-94.4c34.7 28.8 90.9 84.5 130 168.4-40.7 14.8-84.3 23.3-130 25.4V144.3zm0 235.4c51.4-1.9 100.4-11.3 146-27.9 15.9 44.3 24.9 91.1 26.9 139.5H532.8V379.7zm0 153.1h172.9c-2 48.3-11 95.3-26.9 139.6-45.5-16.7-94.5-26.2-146-28.2V532.8zm0 346.9V685.9c45.6 2 89.2 10.6 130 25.5-39.2 84.1-95.3 139.7-130 168.3zm48.1 14c38.2-34.9 86.1-89.5 121-165.8 42.3 20.7 70.6 43.6 85.5 57.3-56.2 56.6-128.8 94.5-206.5 108.5zM815.3 754c-17.1-15.8-49.6-42.3-97.5-65.3 17.6-49.1 27.4-101.4 29.5-155.9h152.2c-4.3 81.3-33.3 157.7-84.2 221.2z" fill="#fff"/></svg>
