<svg class="icon" viewBox="0 0 1056 1024" xmlns="http://www.w3.org/2000/svg" width="30" height="30"><path d="M539.712 0c-282.784 0-512 229.248-512 512s229.216 512 512 512c282.752 0 512-229.248 512-512S822.464 0 539.712 0zM270.528 920.96c1.536.928 2.976 1.856 4.608 2.816-.032-1.728-.128-3.424-.128-5.12 0-140.992 110.304-256.192 249.312-264.128 5.056.32 10.112.544 15.264.544s10.208-.224 15.264-.544c139.008 7.904 249.344 123.104 249.344 264.128 0 1.824-.064 3.616-.128 5.44-76.096 49.888-166.816 78.976-264.32 78.976-99.584 0-192.128-30.272-269.184-82.112zm84.768-485.152c0-99.456 82.496-180.064 184.288-180.064s184.288 80.608 184.288 180.064-82.528 180.064-184.288 180.064c-101.792 0-184.288-80.608-184.288-180.064zm480.416 465.664c-5.824-124.448-88.384-228.768-201.408-266.848C710.912 599.712 764 523.84 764 435.808c0-121.12-100.48-219.296-224.416-219.296s-224.416 98.176-224.416 219.296c0 88.032 53.12 163.904 129.696 198.816-112.992 38.08-195.456 142.336-201.376 266.72-115.2-89.568-189.504-230.048-189.504-388.096 0-270.528 217.44-489.856 485.728-489.856 268.224 0 485.728 219.296 485.728 489.856 0 158.144-74.4 298.688-189.728 388.256z" fill="#fff"/></svg>
