<svg v-if="!isFullScreen" viewBox="0 0 1024 1024" version="1.1"
     xmlns="http://www.w3.org/2000/svg"
     width="25" height="25" fill="#fff">
  <path d="M410.112 513.536h-312.32c-17.92 0-31.744 14.336-31.744 31.744 0 17.408 14.336 31.744 31.744 31.744h242.688l-267.264 267.264c-12.288 11.776-12.288 31.232 0 43.52 11.776 11.776 31.232 11.776 43.52 0l269.312-269.312V865.28c0 17.92 14.336 31.744 31.744 31.744 17.408 0 31.744-14.336 31.744-31.744v-320c0-23.552-13.824-31.744-39.424-31.744z m143.36-64h312.32c17.408 0 31.744-14.336 31.744-31.744 0-17.92-14.336-31.744-31.744-31.744h-242.688l267.264-267.264c12.288-12.288 12.288-31.232 0-43.52-11.776-11.776-31.232-11.776-43.52 0l-269.312 269.312v-246.784c0-17.92-14.336-31.744-31.744-31.744s-31.744 14.336-31.744 31.744v320c-0.512 20.48 15.36 31.744 39.424 31.744z"/>
</svg>
